<?xml version="1.0" standalone="no"?>
<!DOCTYPE svg PUBLIC "-//W3C//DTD SVG 20010904//EN"
 "http://www.w3.org/TR/2001/REC-SVG-20010904/DTD/svg10.dtd">
<svg version="1.0" xmlns="http://www.w3.org/2000/svg"
 width="334.000000pt" height="334.000000pt" viewBox="0 0 334.000000 334.000000"
 preserveAspectRatio="xMidYMid meet">
<metadata>
Created by potrace 1.14, written by Peter Selinger 2001-2017
</metadata>
<g transform="translate(0.000000,334.000000) scale(0.100000,-0.100000)"
fill="#000000" stroke="none">
<path d="M1565 3183 c-122 -14 -202 -28 -281 -48 -352 -92 -641 -298 -839
-600 -96 -146 -129 -214 -181 -372 -61 -185 -78 -287 -77 -468 0 -127 4 -168
27 -266 30 -132 69 -252 114 -351 40 -87 162 -273 241 -366 34 -41 59 -78 55
-84 -4 -6 -3 -8 3 -5 6 4 13 -3 17 -16 8 -31 7 -30 33 -50 13 -10 23 -24 23
-30 0 -17 125 -132 195 -180 33 -22 66 -48 72 -58 7 -9 25 -20 40 -24 16 -3
61 -22 100 -41 149 -70 428 -116 573 -95 41 7 83 12 92 13 9 1 15 5 12 9 -2 4
4 9 14 11 23 6 95 -39 86 -54 -5 -8 18 -10 85 -5 96 6 129 18 254 90 78 46
100 68 141 146 30 57 47 75 123 131 98 73 265 235 334 325 243 317 360 740
304 1107 -16 109 -54 251 -86 324 -12 27 -31 74 -44 104 -50 125 -211 353
-323 458 -77 71 -199 159 -304 219 -209 120 -585 202 -803 176z m208 -133
c132 -50 254 -164 299 -280 24 -63 37 -216 20 -246 -10 -17 -12 -16 -23 14
-20 58 -88 192 -125 248 -47 70 -206 199 -315 254 l-84 42 85 -5 c52 -3 108
-13 143 -27z m-241 -56 c124 -37 266 -129 335 -217 47 -61 68 -100 94 -175
l19 -55 -43 6 c-31 4 -47 13 -62 34 -11 15 -56 65 -100 109 -63 63 -100 91
-165 124 -168 85 -300 115 -478 108 -56 -1 -98 0 -94 4 15 15 163 68 214 77
69 13 212 5 280 -15z m529 -23 c82 -52 154 -207 133 -287 -5 -20 -13 -35 -19
-35 -5 0 -15 28 -22 63 -19 92 -38 135 -99 216 -30 39 -51 72 -46 72 4 0 28
-13 53 -29z m309 -81 c25 -16 49 -30 54 -30 15 0 130 -96 216 -181 47 -46 111
-123 142 -171 73 -110 160 -284 187 -372 25 -80 24 -75 9 -72 -25 6 -48 18
-44 25 2 3 -2 15 -10 26 -8 10 -14 14 -14 7 0 -6 -18 8 -40 32 -22 24 -40 48
-40 54 0 6 -9 14 -21 17 -22 7 -76 56 -100 92 -8 13 -49 58 -90 101 -41 42
-85 93 -99 112 -13 19 -27 37 -30 40 -3 3 -16 25 -29 50 -13 25 -37 61 -52 81
-16 20 -29 40 -29 43 0 4 -7 23 -16 44 -21 47 -24 62 -13 62 5 0 0 9 -11 20
-12 12 -18 25 -15 30 3 4 -1 11 -7 13 -7 3 -8 6 -3 6 6 1 30 -13 55 -29z
m-928 -77 c112 -39 228 -111 301 -187 60 -63 70 -81 37 -71 -12 4 -20 2 -20
-5 0 -20 -82 -9 -115 15 -46 34 -145 83 -200 100 -28 8 -106 20 -174 26 -207
18 -392 -16 -574 -106 -49 -25 -91 -45 -93 -45 -3 0 8 18 23 41 62 94 244 209
397 250 56 15 98 18 201 16 115 -2 140 -6 217 -34z m-319 -189 c4 -4 -7 -23
-25 -42 -33 -38 -67 -106 -68 -134 0 -18 -9 -21 -85 -33 -71 -12 -224 -75
-308 -128 -112 -70 -124 -80 -207 -175 -40 -45 -75 -81 -76 -79 -2 2 8 38 22
80 48 142 135 253 268 341 121 79 230 124 381 157 97 21 90 20 98 13z m279
-46 c73 -22 137 -95 178 -202 l10 -28 39 35 c56 51 139 79 247 85 82 4 99 1
181 -27 50 -17 98 -31 108 -31 24 0 180 -104 199 -132 8 -13 17 -50 20 -83 5
-54 9 -63 42 -90 40 -33 106 -81 199 -147 70 -49 145 -117 145 -130 0 -6 -60
-8 -149 -6 -139 3 -152 5 -181 27 l-32 23 7 -23 c15 -55 60 -104 114 -125 73
-29 86 -45 86 -102 -1 -99 -71 -174 -199 -213 -55 -18 -84 -21 -153 -16 -73 4
-95 10 -166 46 -45 23 -93 48 -107 56 l-25 15 25 0 c14 -1 54 -7 90 -15 79
-17 189 -19 241 -3 57 17 48 28 -23 29 -35 0 -128 4 -208 9 -82 4 -152 4 -160
-1 -8 -4 -11 -9 -6 -9 5 0 2 -8 -7 -17 -8 -10 -17 -22 -19 -28 -2 -5 -6 -9
-10 -8 -13 5 -9 -15 5 -21 6 -3 1 -3 -13 0 -126 30 -227 159 -238 304 -7 105
15 182 90 313 47 82 -30 71 -197 -28 -126 -74 -319 -226 -373 -294 -146 -182
-224 -319 -270 -476 -64 -216 -66 -484 -6 -650 4 -11 -16 11 -44 49 -28 38
-48 74 -45 79 3 6 2 7 -3 4 -17 -10 -73 106 -95 199 -27 110 -29 263 -5 377
50 233 237 494 456 639 123 81 330 159 490 183 43 7 100 51 100 78 0 17 -157
0 -252 -28 -123 -36 -312 -122 -410 -188 -101 -67 -268 -236 -331 -335 -124
-192 -174 -346 -186 -567 l-6 -120 -37 72 c-75 148 -85 300 -34 486 56 199
216 402 409 518 175 104 366 158 627 174 52 4 128 15 169 26 41 11 83 18 94
17 11 -2 22 2 24 8 5 16 -99 37 -196 40 l-83 2 -22 38 c-29 53 -87 84 -154 84
-46 0 -58 -4 -83 -29 -22 -22 -29 -39 -29 -68 0 -21 5 -45 10 -53 12 -19 -9
-28 -62 -29 -37 -1 -38 0 -54 56 -49 170 93 304 268 251z m-382 -258 c0 -17 7
-46 14 -65 13 -31 13 -35 0 -35 -8 0 -13 4 -9 9 3 6 -3 9 -14 8 -11 0 -22 -8
-24 -17 -2 -8 -33 -30 -68 -49 -265 -140 -480 -396 -540 -638 -10 -42 -20 -77
-23 -80 -11 -12 -29 88 -30 167 -1 190 85 367 252 521 76 69 238 155 357 188
90 25 85 26 85 -9z m580 -357 c-173 -224 -263 -484 -246 -717 16 -229 136
-484 316 -671 140 -146 263 -289 251 -293 -52 -17 -300 72 -391 141 -177 135
-320 347 -369 546 -27 110 -32 173 -21 293 10 113 28 190 65 274 24 55 119
218 144 248 15 18 261 206 269 206 2 0 -6 -12 -18 -27z m-31 -288 c-25 -244
74 -512 285 -765 164 -197 255 -392 256 -545 0 -46 -19 -122 -45 -180 l-18
-40 -7 30 c-13 57 -72 186 -112 246 -22 32 -70 92 -107 132 -200 214 -256 290
-304 407 -92 222 -92 486 2 684 15 34 34 78 41 99 6 21 14 37 16 35 2 -2 -1
-49 -7 -103z m1169 -151 c-13 -31 -27 -56 -33 -56 -5 0 -16 17 -24 39 -22 60
-8 125 37 175 l37 41 3 -71 c2 -56 -2 -83 -20 -128z m-960 -193 c35 -44 137
-153 226 -243 173 -174 221 -234 270 -337 60 -129 43 -314 -38 -424 l-31 -42
-6 85 c-12 178 -67 314 -184 455 -23 28 -50 64 -61 80 -10 17 -39 53 -64 82
-98 112 -196 316 -205 427 l-5 61 17 -32 c10 -17 46 -68 81 -112z m-725 -21
c-20 -136 -8 -259 41 -420 46 -150 82 -221 171 -339 84 -112 129 -154 227
-218 38 -25 67 -47 65 -49 -8 -8 -147 29 -141 37 2 4 -1 11 -7 15 -8 5 -9 3
-4 -6 6 -10 1 -12 -25 -6 -19 3 -37 11 -41 17 -3 6 -9 10 -13 9 -13 -4 -66 22
-66 32 0 5 -4 7 -9 4 -13 -9 -131 89 -131 109 0 6 9 18 19 27 14 12 22 13 31
5 10 -9 11 -9 5 3 -23 42 -48 70 -57 63 -8 -4 -9 0 -5 11 5 11 3 15 -5 10 -7
-5 -9 0 -6 14 3 11 1 23 -6 25 -7 3 -11 -11 -11 -40 0 -25 1 -40 3 -34 2 6 8
11 14 11 11 0 2 -49 -11 -63 -8 -8 -58 60 -63 85 -2 7 -9 18 -16 24 -8 5 -15
22 -15 36 -1 14 -5 24 -9 21 -13 -7 -9 12 5 26 10 10 9 11 -5 6 -29 -11 -51
122 -46 279 4 115 9 143 38 226 32 94 78 195 85 188 2 -2 -4 -50 -12 -108z
m1612 80 c23 -26 24 -103 2 -146 -22 -42 -85 -104 -123 -120 -54 -23 -189 -4
-271 36 -72 36 -110 71 -147 136 l-23 41 51 -20 c105 -39 231 -21 361 52 79
45 123 51 150 21z m-561 -233 c28 -19 85 -51 126 -73 191 -100 276 -272 222
-450 -12 -38 -28 -78 -36 -89 -14 -19 -15 -18 -16 24 0 57 -26 153 -57 218
-32 65 -136 196 -227 286 -41 41 -70 78 -72 93 -1 13 0 24 3 24 3 0 29 -15 57
-33z m-954 -607 c0 -13 -40 -43 -48 -35 -4 4 -2 10 5 12 7 2 9 12 6 20 -5 13
-2 15 13 9 15 -6 17 -5 7 5 -7 7 -13 18 -13 24 1 10 30 -24 30 -35z"/>
<path d="M1914 2211 c-93 -34 -95 -37 -30 -57 43 -14 61 -25 72 -46 19 -37 43
-48 106 -48 54 0 97 -19 147 -64 l23 -21 -15 35 c-67 158 -81 177 -144 206
-43 19 -97 17 -159 -5z"/>
<path d="M2180 1830 c-9 -6 -10 -10 -3 -10 6 0 15 5 18 10 8 12 4 12 -15 0z"/>
<path d="M1921 1645 c11 -11 269 -55 319 -54 60 1 135 23 110 32 -34 13 -440
34 -429 22z"/>
<path d="M1183 445 c0 -8 4 -12 9 -9 5 3 6 10 3 15 -9 13 -12 11 -12 -6z"/>
</g>
</svg>
